<svg xmlns="http://www.w3.org/2000/svg" width="299.4992" height="50.5785" viewBox="0 0 299.4992 50.5785"><defs><style>.a{fill:#f2f2f4;}.b{isolation:isolate;}.c{fill:none;stroke:#feae44;stroke-width:4px;}</style></defs><path class="a" d="M22.126,30.3335H2.048a.72.72,0,0,0-.2,0h0s.234.047.126.017.2.107.083.036.089.075.087.072c-.147-.132.051.055.034.064s-.066-.121-.07-.119.062.23.032.051c-.036-.213,0,.2,0-.028v-.019c.017-.852,0-1.7,0-2.557V10.9645c0-.731.023-1.466,0-2.2,0-.228-.047.124,0,.015.015-.038.045-.2,0-.047s-.021.032,0,0c.119-.141-.03.034-.045.051.047-.055.141-.1-.068.043.03-.019.13-.068-.015,0-.092.03-.092.03-.009.011l-.158.019h.026a1.6455,1.6455,0,0,0,.213,0H33.105a3.8626,3.8626,0,0,0,.629,0h.032c.009,0-.234-.045-.126-.017s-.2-.1-.083-.036-.089-.075-.085-.07c.145.132-.051-.055-.036-.066s.066.124.07.121-.06-.213-.043-.087c.032.232,0-.011,0-.021a1.6222,1.6222,0,0,0,0,.337v11.313a1.0655,1.0655,0,0,0,2.131,0V8.9255a2.6,2.6,0,0,0-.224-1.131A1.843,1.843,0,0,0,33.748,6.73c-.639-.015-1.259,0-1.888,0H1.847A1.9171,1.9171,0,0,0,.032,8.47a6.2468,6.2468,0,0,0-.027.852v21.1a2.0089,2.0089,0,0,0,1.462,1.994,2.3828,2.3828,0,0,0,.52.047H22.126a1.0655,1.0655,0,0,0,0-2.131Z"/><path class="a" d="M.737,8.9935,3.991,11.11l1.934,1.261,4.372,2.842,4.544,2.959c.795.516,1.577,1.065,2.39,1.555l.036.023a1.0439,1.0439,0,0,0,1.065,0l1.643-1.065,3.946-2.567,4.776-3.105,4.138-2.693c.669-.426,1.347-.852,2.009-1.308l.028-.017a1.085,1.085,0,0,0,.38-1.46,1.054,1.054,0,0,0-1.4391-.3883l-.0159.0093-1.645,1.065-3.946,2.557-4.77,3.121-4.133,2.687c-.667.426-1.364.839-2.009,1.308l-.028.017h1.065l-1.966-1.276L11.972,13.76l-4.515-2.931-2.36-1.543-3.15-2.043-.134-.087a1.065,1.065,0,0,0-1.457.379,1.0869,1.0869,0,0,0,.381,1.462Z"/><path class="a" d="M9.873,13.4085l-3.241,4.186-5.141,6.633L.315,25.7465a1.168,1.168,0,0,0-.315.754,1.0819,1.0819,0,0,0,.313.752,1.0759,1.0759,0,0,0,1.506,0l3.243-4.182,5.138-6.637,1.179-1.525a1.161,1.161,0,0,0,.313-.752,1.0889,1.0889,0,0,0-.313-.754A1.076,1.076,0,0,0,9.873,13.4085Z"/><path class="a" d="M40.346,8.86H60.424a.7127.7127,0,0,0,.2,0h0s-.234-.045-.128-.017-.2-.1-.083-.036-.09-.075-.085-.07c.145.132-.051-.055-.036-.066s.066.124.07.121-.062-.23-.032-.051c.036.213,0-.2,0,.026v.021c-.017.852,0,1.7,0,2.557v16.9c0,.729-.023,1.464,0,2.194,0,.23.047-.121,0-.013-.013.036-.045.2,0,.045s.019-.032,0,0l.045-.053c-.047.058-.141.1.068-.04-.03.019-.13.066.015,0,.092-.034.094-.04,0-.015l.158-.026a.1192.1192,0,0,0-.028,0,1.6455,1.6455,0,0,0-.213,0H29.372a4.1558,4.1558,0,0,0-.639,0h-.032c-.009,0,.234.047.126.017s.2.107.083.036.089.075.087.072c-.147-.132.051.055.034.064s-.066-.121-.07-.119.06.213.043.085c-.032-.23,0,0,0,.021a1.4836,1.4836,0,0,0,0-.337V18.8735a1.0655,1.0655,0,0,0-2.131,0v11.4a2.6,2.6,0,0,0,.232,1.14,1.8408,1.8408,0,0,0,1.626,1.05c.626.017,1.257,0,1.885,0H60.625A1.9181,1.9181,0,0,0,62.44,30.73a6.2153,6.2153,0,0,0,.03-.852V8.7725a2.0081,2.0081,0,0,0-1.462-1.994,2.5284,2.5284,0,0,0-.52-.049H40.346a1.065,1.065,0,1,0,0,2.13Z"/><path class="a" d="M61.735,30.2075,58.484,28.09l-1.937-1.259-4.37-2.844L47.633,21.03c-.795-.518-1.577-1.065-2.39-1.555l-.036-.023a1.0439,1.0439,0,0,0-1.065,0l-1.639,1.065-3.954,2.572-4.775,3.106-4.127,2.693c-.671.426-1.349.852-2.011,1.308l-.028.019a1.0653,1.0653,0,0,0,1.076,1.839l1.643-1.065,3.944-2.557,4.775-3.106,4.129-2.687c.667-.426,1.364-.842,2.009-1.308l.028-.019H44.147l1.967,1.278,4.387,2.846,4.515,2.938,2.363,1.536,3.147,2.05.136.087a1.065,1.065,0,0,0,1.457-.381,1.0889,1.0889,0,0,0-.384-1.457Z"/><path class="a" d="M52.599,25.7925l3.241-4.182,5.141-6.637,1.176-1.521a1.1506,1.1506,0,0,0,.313-.758,1.0889,1.0889,0,0,0-.313-.754,1.0761,1.0761,0,0,0-1.506,0l-3.239,4.182-5.141,6.643-1.178,1.521a1.1679,1.1679,0,0,0-.313.765,1.066,1.066,0,0,0,1.82.752Z"/><g class="b"><g class="b"><path class="a" d="M76.1578,30.78v-15.3h-2.52V12.42h2.52v-.7558a8.5569,8.5569,0,0,1,1.62-5.5079A5.3349,5.3349,0,0,1,82.17,4.1406a8.5352,8.5352,0,0,1,2.268.3057,10.23,10.23,0,0,1,2.1241.8457l-.8638,2.9521a5.4956,5.4956,0,0,0-1.2783-.54,5.0727,5.0727,0,0,0-1.4219-.2158,2.4611,2.4611,0,0,0-2.1421,1.0439,5.2088,5.2088,0,0,0-.7378,3.0244V12.42H84.942v3.0606H80.1178v15.3Z"/><path class="a" d="M95.4176,31.1406a9.7909,9.7909,0,0,1-4.0141-.792A9.2148,9.2148,0,0,1,86.4176,25.11a10.49,10.49,0,0,1,0-7.4522A9.2215,9.2215,0,0,1,88.38,14.5439a9.5855,9.5855,0,0,1,3.06-2.124,10.3862,10.3862,0,0,1,7.956,0,9.591,9.591,0,0,1,3.06,2.124,9.2339,9.2339,0,0,1,1.9619,3.1143,10.49,10.49,0,0,1,0,7.4522,9.2237,9.2237,0,0,1-1.9619,3.1142,9.591,9.591,0,0,1-3.06,2.124A9.7,9.7,0,0,1,95.4176,31.1406ZM89.8019,21.42a7.1171,7.1171,0,0,0,.4316,2.5205,6.2563,6.2563,0,0,0,1.188,1.9981,5.5582,5.5582,0,0,0,1.7822,1.332,5.2915,5.2915,0,0,0,4.4278,0A5.44,5.44,0,0,0,99.4137,25.92a6.4735,6.4735,0,0,0,1.188-2.0156,7.5133,7.5133,0,0,0,0-5.0225,6.4408,6.4408,0,0,0-1.188-2.0332,5.443,5.443,0,0,0-1.7822-1.3506,5.1008,5.1008,0,0,0-2.2139-.4853,4.8728,4.8728,0,0,0-2.1777.5039,5.6707,5.6707,0,0,0-1.7822,1.3672,6.7254,6.7254,0,0,0-1.2061,2.0342A6.9043,6.9043,0,0,0,89.8019,21.42Z"/><path class="a" d="M119.2135,15.3721a8.864,8.864,0,0,0-4.0859,1.0625,5.5934,5.5934,0,0,0-2.5381,2.8261V30.78h-3.96V11.9521h3.6719v4.212A8.6159,8.6159,0,0,1,114.84,13.05a6.16,6.16,0,0,1,3.3662-1.2773h.5937a2.0989,2.0989,0,0,1,.4141.0361Z"/><path class="a" d="M119.9337,21.3486a10.2631,10.2631,0,0,1,.6841-3.7441,9.1669,9.1669,0,0,1,5.04-5.2022,10.1137,10.1137,0,0,1,4.0323-.7744,9.5022,9.5022,0,0,1,5.0219,1.2783,8.1123,8.1123,0,0,1,3.15,3.4024l-3.852,1.2236a4.9562,4.9562,0,0,0-1.8359-1.8535,5.0137,5.0137,0,0,0-2.5562-.666,5.277,5.277,0,0,0-2.2139.4678,5.34,5.34,0,0,0-1.7822,1.3134,6.2781,6.2781,0,0,0-1.188,1.9981,7.2314,7.2314,0,0,0-.4316,2.5566,7.0058,7.0058,0,0,0,.45,2.5381,6.5035,6.5035,0,0,0,1.2241,2.0332,5.6325,5.6325,0,0,0,1.8,1.3506,5.0211,5.0211,0,0,0,2.1782.4854,5.42,5.42,0,0,0,1.44-.1973A5.1448,5.1448,0,0,0,132.4078,27a5.0872,5.0872,0,0,0,1.044-.8281,3.1274,3.1274,0,0,0,.666-1.0078l3.8882,1.1523a7.7,7.7,0,0,1-3.1323,3.4736,9.6967,9.6967,0,0,1-5.1836,1.3506,9.8245,9.8245,0,0,1-3.9961-.792,9.38,9.38,0,0,1-3.0781-2.1425,9.6828,9.6828,0,0,1-1.98-3.1143A10.0259,10.0259,0,0,1,119.9337,21.3486Z"/><path class="a" d="M149.6339,31.1406a10.02,10.02,0,0,1-3.9961-.7744,9.2866,9.2866,0,0,1-3.0781-2.1055,9.4831,9.4831,0,0,1-1.98-3.0966,10.0348,10.0348,0,0,1-.7021-3.7442,10.1779,10.1779,0,0,1,.7021-3.7617,9.66,9.66,0,0,1,1.98-3.1318,9.1622,9.1622,0,0,1,3.0781-2.1241,10.1126,10.1126,0,0,1,4.0318-.7744,9.702,9.702,0,0,1,3.978.792,9.5208,9.5208,0,0,1,3.042,2.1065,9.0273,9.0273,0,0,1,1.9263,3.0595,10.1784,10.1784,0,0,1,.666,3.6543c0,.2881-.0127.5577-.0362.81s-.0483.4629-.0717.6309H144.09a6.4456,6.4456,0,0,0,.5942,2.2675,5.961,5.961,0,0,0,1.26,1.7461,5.5379,5.5379,0,0,0,3.834,1.53,6.3121,6.3121,0,0,0,1.5664-.1982,5.53,5.53,0,0,0,1.4219-.5762,5.0342,5.0342,0,0,0,1.1518-.918,4.2984,4.2984,0,0,0,.792-1.1875l3.3843.9717a7.8456,7.8456,0,0,1-3.2222,3.4736A9.98,9.98,0,0,1,149.6339,31.1406Zm5.7237-11.1963a6.3412,6.3412,0,0,0-.5938-2.1963,5.66,5.66,0,0,0-1.2422-1.71,5.561,5.561,0,0,0-1.7637-1.0977,5.7673,5.7673,0,0,0-2.124-.3965,5.6359,5.6359,0,0,0-3.852,1.4942,5.4,5.4,0,0,0-1.2242,1.71,6.6021,6.6021,0,0,0-.5761,2.1963Z"/><path class="a" d="M161.297,21.3486a10.2613,10.2613,0,0,1,.6846-3.7441,9.1669,9.1669,0,0,1,5.04-5.2022,10.11,10.11,0,0,1,4.0322-.7744,9.5018,9.5018,0,0,1,5.0215,1.2783,8.1116,8.1116,0,0,1,3.15,3.4024l-3.8525,1.2236a4.9557,4.9557,0,0,0-1.836-1.8535,5.0126,5.0126,0,0,0-2.5556-.666,5.2753,5.2753,0,0,0-2.2139.4678,5.3285,5.3285,0,0,0-1.7822,1.3134,6.2793,6.2793,0,0,0-1.1885,1.9981,7.2314,7.2314,0,0,0-.4316,2.5566,6.9953,6.9953,0,0,0,.45,2.5381,6.5024,6.5024,0,0,0,1.2236,2.0332,5.638,5.638,0,0,0,1.8,1.3506,5.0249,5.0249,0,0,0,2.1787.4854,5.4186,5.4186,0,0,0,1.44-.1973,5.1523,5.1523,0,0,0,2.3584-1.3867,3.1372,3.1372,0,0,0,.666-1.0078l3.8877,1.1523a7.6958,7.6958,0,0,1-3.1319,3.4736,9.6974,9.6974,0,0,1-5.1836,1.3506,9.8218,9.8218,0,0,1-3.9961-.792,9.3768,9.3768,0,0,1-3.0781-2.1425,9.6771,9.6771,0,0,1-1.98-3.1143A10.0259,10.0259,0,0,1,161.297,21.3486Z"/><path class="a" d="M190.9259,31.1406a9.795,9.795,0,0,1-4.0146-.792,9.2119,9.2119,0,0,1-4.9854-5.2382,10.4824,10.4824,0,0,1,0-7.4522,9.2061,9.2061,0,0,1,1.9619-3.1143,9.5888,9.5888,0,0,1,3.06-2.124,10.3865,10.3865,0,0,1,7.9561,0,9.5927,9.5927,0,0,1,3.06,2.124,9.2339,9.2339,0,0,1,1.9619,3.1143,10.4967,10.4967,0,0,1,0,7.4522,9.2237,9.2237,0,0,1-1.9619,3.1142,9.5927,9.5927,0,0,1-3.06,2.124A9.6965,9.6965,0,0,1,190.9259,31.1406ZM185.31,21.42a7.1193,7.1193,0,0,0,.4316,2.5205,6.2574,6.2574,0,0,0,1.1885,1.9981,5.5474,5.5474,0,0,0,1.7822,1.332,5.2915,5.2915,0,0,0,4.4278,0A5.4455,5.4455,0,0,0,194.922,25.92a6.4723,6.4723,0,0,0,1.1875-2.0156,7.5051,7.5051,0,0,0,0-5.0225,6.44,6.44,0,0,0-1.1875-2.0332A5.4482,5.4482,0,0,0,193.14,15.498a5.1008,5.1008,0,0,0-2.2139-.4853,4.8728,4.8728,0,0,0-2.1777.5039,5.665,5.665,0,0,0-1.7822,1.3672A6.7254,6.7254,0,0,0,185.76,18.918,6.8939,6.8939,0,0,0,185.31,21.42Z"/><path class="a" d="M221.0206,30.78h-3.96V20.2324a6.8808,6.8808,0,0,0-.8457-3.87,2.8607,2.8607,0,0,0-2.502-1.2061,4.8879,4.8879,0,0,0-1.7275.3243,6.0309,6.0309,0,0,0-1.62.9179,7.1583,7.1583,0,0,0-1.3506,1.4043,6.4318,6.4318,0,0,0-.918,1.7813V30.78h-3.96V11.9521h3.6005v3.78a7.6513,7.6513,0,0,1,3.1319-3.0058,9.4558,9.4558,0,0,1,4.5361-1.0987,5.5734,5.5734,0,0,1,2.7715.6123,4.5817,4.5817,0,0,1,1.71,1.6739,7.3279,7.3279,0,0,1,.8818,2.4482,16.3894,16.3894,0,0,1,.2519,2.9336Z"/><path class="a" d="M242.5128,30.78h-3.96V20.2324a6.8816,6.8816,0,0,0-.8457-3.87,2.8607,2.8607,0,0,0-2.502-1.2061,4.8969,4.8969,0,0,0-1.7285.3243,6.0309,6.0309,0,0,0-1.62.9179,7.1251,7.1251,0,0,0-1.35,1.4043,6.4049,6.4049,0,0,0-.918,1.7813V30.78h-3.96V11.9521h3.6v3.78a7.6574,7.6574,0,0,1,3.1319-3.0058,9.4558,9.4558,0,0,1,4.5361-1.0987,5.58,5.58,0,0,1,2.7725.6123,4.588,4.588,0,0,1,1.71,1.6739,7.3477,7.3477,0,0,1,.8819,2.4482,16.3986,16.3986,0,0,1,.2519,2.9336Z"/><path class="a" d="M255.6525,31.1406a10.0157,10.0157,0,0,1-3.9961-.7744,9.2805,9.2805,0,0,1-3.0781-2.1055,9.4746,9.4746,0,0,1-1.9805-3.0966,10.0349,10.0349,0,0,1-.7022-3.7442,10.178,10.178,0,0,1,.7022-3.7617,9.6507,9.6507,0,0,1,1.9805-3.1318,9.1562,9.1562,0,0,1,3.0781-2.1241,10.1083,10.1083,0,0,1,4.0312-.7744,9.7054,9.7054,0,0,1,3.9785.792,9.5319,9.5319,0,0,1,3.042,2.1065,9.023,9.023,0,0,1,1.9258,3.0595A10.1655,10.1655,0,0,1,265.3,21.24c0,.2881-.0127.5577-.0361.81s-.0478.4629-.0713.6309H250.1076a6.4437,6.4437,0,0,0,.5947,2.2675,5.9516,5.9516,0,0,0,1.26,1.7461,5.5355,5.5355,0,0,0,3.834,1.53,6.3145,6.3145,0,0,0,1.5664-.1982,5.5342,5.5342,0,0,0,1.4219-.5762,5.032,5.032,0,0,0,1.1514-.918,4.3006,4.3006,0,0,0,.792-1.1875l3.3847.9717A7.846,7.846,0,0,1,260.89,29.79,9.98,9.98,0,0,1,255.6525,31.1406Zm5.7236-11.1963a6.3631,6.3631,0,0,0-.5937-2.1963,5.6616,5.6616,0,0,0-1.2422-1.71,5.5665,5.5665,0,0,0-1.7637-1.0977,5.7719,5.7719,0,0,0-2.124-.3965A5.6384,5.6384,0,0,0,251.8,16.0381a5.4048,5.4048,0,0,0-1.2236,1.71A6.5926,6.5926,0,0,0,250,19.9443Z"/><path class="a" d="M267.3156,21.3486a10.2607,10.2607,0,0,1,.6836-3.7441,9.1669,9.1669,0,0,1,5.04-5.2022,10.1163,10.1163,0,0,1,4.0322-.7744,9.5029,9.5029,0,0,1,5.0225,1.2783,8.1155,8.1155,0,0,1,3.1494,3.4024l-3.8516,1.2236a4.9548,4.9548,0,0,0-1.8359-1.8535,5.0139,5.0139,0,0,0-2.5566-.666,5.2786,5.2786,0,0,0-2.2139.4678,5.3476,5.3476,0,0,0-1.7822,1.3134,6.2752,6.2752,0,0,0-1.1875,1.9981,7.2314,7.2314,0,0,0-.4317,2.5566,7.0163,7.0163,0,0,0,.4492,2.5381,6.5047,6.5047,0,0,0,1.2246,2.0332,5.6285,5.6285,0,0,0,1.8,1.3506,5.0167,5.0167,0,0,0,2.1777.4854,5.42,5.42,0,0,0,1.44-.1973A5.1435,5.1435,0,0,0,279.7892,27a5.06,5.06,0,0,0,1.0439-.8281,3.1212,3.1212,0,0,0,.6661-1.0078l3.8886,1.1523A7.703,7.703,0,0,1,282.255,29.79a9.6955,9.6955,0,0,1-5.1836,1.3506,9.8282,9.8282,0,0,1-3.9961-.792,9.3862,9.3862,0,0,1-3.0781-2.1425,9.6917,9.6917,0,0,1-1.98-3.1143A10.0259,10.0259,0,0,1,267.3156,21.3486Z"/><path class="a" d="M299.1388,29.8086a19.7862,19.7862,0,0,1-2.0879.81,8.8308,8.8308,0,0,1-2.8437.45,6.0308,6.0308,0,0,1-1.7647-.252,4.3088,4.3088,0,0,1-1.457-.7559,3.4186,3.4186,0,0,1-.99-1.3144,4.8093,4.8093,0,0,1-.36-1.9619V15.0127h-2.4844V11.9521h2.4844V5.7607h3.96v6.1914h4.1045v3.0606h-4.1045V25.5244a1.9547,1.9547,0,0,0,.63,1.458,2.1391,2.1391,0,0,0,1.3868.45,4.407,4.407,0,0,0,1.5839-.2881q.756-.2886,1.1153-.4677Z"/></g></g><line class="c" x1="0.499" y1="48.5785" x2="299.499" y2="48.5785"/></svg>